<svg width="86" height="67" viewBox="0 0 86 67" fill="none" xmlns="http://www.w3.org/2000/svg">
<g clip-path="url(#clip0_518_13456)">
<path d="M63.6997 21.7674C61.6266 16.5828 49.121 16.7848 35.8131 22.1714C22.572 27.5577 13.477 36.1767 15.5498 41.3613C17.6232 46.5459 30.1288 46.3436 43.4367 40.9573C56.6778 35.5034 65.7727 26.952 63.6997 21.7671V21.7674ZM23.3075 41.0243C22.2373 41.4956 20.9669 40.957 20.5654 39.8124C20.0974 38.7352 20.6323 37.4556 21.7696 37.0516C22.9063 36.6477 24.1098 37.119 24.5113 38.2636C24.9125 39.4081 24.4445 40.6204 23.3071 41.0243H23.3075ZM47.984 21.6994C49.0541 21.2281 50.3249 21.7671 50.726 22.9114C51.1941 23.9889 50.6592 25.2682 49.5222 25.6722C48.4524 26.1438 47.1817 25.6048 46.7805 24.4602C46.379 23.383 46.9142 22.1711 47.984 21.6998V21.6994ZM38.0195 24.5276C39.0897 24.0563 40.3604 24.5949 40.7616 25.7395C41.2299 26.8167 40.6947 28.0963 39.558 28.5003C38.421 28.9042 37.2172 28.4329 36.816 27.2884C36.4148 26.1438 36.9497 24.9992 38.0199 24.5276H38.0195ZM27.2533 32.069C26.785 30.9918 27.3199 29.7122 28.4569 29.3082C29.5935 28.9042 30.7974 29.3755 31.1986 30.5201C31.6666 31.5974 31.1317 32.877 29.995 33.2809C28.9249 33.6849 27.6542 33.1463 27.253 32.069H27.2533ZM42.634 39.1388C35.6125 41.9666 29.1924 42.4382 28.3231 40.2161C27.3867 37.9269 32.3356 33.8195 39.3574 30.9244C46.379 28.0963 52.7991 27.625 53.6683 29.8472C54.6047 32.1363 49.6559 36.2437 42.634 39.1388ZM58.5503 26.7497C57.4801 27.221 56.2098 26.6824 55.8083 25.5378C55.3402 24.4606 55.8754 23.181 57.0124 22.777C58.1491 22.3731 59.3526 22.8444 59.7541 23.9889C60.1553 25.0662 59.6204 26.2781 58.5503 26.7497Z" fill="#545863"/>
<path d="M24.8456 45.4686C19.8967 45.4686 16.2855 44.1221 15.2154 41.4286C13.0086 35.9747 22.0367 27.356 35.7461 21.8344C42.2328 19.2086 48.7194 17.7273 54.0029 17.66C59.4194 17.5927 62.9638 19.0066 64.0339 21.6327C66.241 27.0867 57.2126 35.7053 43.5035 41.2266C36.5485 44.0544 29.9278 45.4686 24.8456 45.4686ZM54.4709 18.3333H54.0697C48.8535 18.4006 42.4337 19.8819 36.0136 22.5077C22.9062 27.8273 13.8781 36.244 15.8843 41.2266C17.8905 46.2089 30.1955 45.9396 43.3029 40.6207C56.4103 35.3011 65.4383 26.8847 63.4321 21.902C62.4957 19.5452 59.2857 18.3333 54.4706 18.3333H54.4709ZM32.1349 41.8999C29.9278 41.8999 28.4568 41.3613 27.9884 40.284C26.9855 37.7925 31.9343 33.5505 39.2236 30.5877C42.6339 29.1738 46.0446 28.2986 48.7866 28.0966C51.6624 27.8946 53.5345 28.4332 54.0026 29.7125C54.4709 30.9244 53.5345 32.6749 51.328 34.4931C49.1878 36.2437 46.1783 37.9945 42.7677 39.4084C38.6884 41.092 34.8766 41.8999 32.1346 41.8999H32.1349ZM49.9233 28.7699C49.589 28.7699 49.1878 28.7699 48.8535 28.8372C46.1783 29.0392 42.8345 29.9144 39.4911 31.261C32.068 34.2911 27.9216 38.2638 28.5905 40.0817C29.326 41.8999 35.0772 41.8322 42.5002 38.8025C45.844 37.4559 48.8535 35.7053 50.9262 34.0218C52.8659 32.4059 53.7351 30.9247 53.4008 29.9821C53.0665 29.1742 51.8626 28.7702 49.9233 28.7702V28.7699ZM22.5719 41.5633C22.2376 41.5633 21.9033 41.4959 21.6355 41.3613C21.0391 41.0973 20.562 40.6169 20.2982 40.0147C20.166 39.7185 20.0976 39.3971 20.0976 39.0721C20.0976 38.7471 20.166 38.4257 20.2982 38.1295C20.5619 37.5272 21.039 37.0466 21.6355 36.7826C22.9062 36.244 24.3103 36.9173 24.8456 38.1292C25.3805 39.3411 24.7118 40.8223 23.508 41.3609C23.1737 41.4956 22.8393 41.5633 22.5719 41.5633ZM22.5719 37.2539C22.371 37.2539 22.1035 37.3212 21.9033 37.3886C21.4349 37.5905 21.1006 37.9272 20.9 38.3312C20.6994 38.8025 20.6994 39.2738 20.9 39.6777C21.1006 40.149 21.4349 40.4857 21.8361 40.688C22.3041 40.89 22.7725 40.89 23.1733 40.688C24.1097 40.284 24.5112 39.2738 24.1766 38.3312C23.9092 37.7252 23.2405 37.2539 22.5719 37.2539ZM29.1923 33.7528C28.858 33.7528 28.5236 33.6852 28.2562 33.5505C27.6597 33.2866 27.1825 32.8062 26.9186 32.2039C26.3837 30.9247 27.0523 29.5108 28.2559 28.9722C29.5266 28.4332 30.931 29.1068 31.4659 30.3187C31.5981 30.615 31.6665 30.9363 31.6665 31.2613C31.6665 31.5864 31.5981 31.9077 31.4659 32.2039C31.2022 32.8061 30.7251 33.2866 30.1287 33.5505C29.7944 33.6852 29.5266 33.7525 29.1923 33.7525V33.7528ZM29.1923 29.4431C28.9917 29.4431 28.7242 29.5105 28.5237 29.5778C27.5872 29.9818 27.1861 30.992 27.5207 31.9346C27.721 32.4059 28.0553 32.7426 28.4568 32.9446C28.9248 33.1465 29.3929 33.1465 29.794 32.9446C30.7304 32.5406 31.1316 31.5307 30.7973 30.5877C30.5967 29.9144 29.9278 29.4431 29.1923 29.4431ZM38.8224 28.9718C38.4881 28.9718 38.1535 28.9045 37.886 28.7699C37.2896 28.5059 36.8125 28.0255 36.5488 27.4233C36.0132 26.1441 36.6822 24.7302 37.886 24.1915C39.1564 23.6526 40.5609 24.3262 41.0961 25.5381C41.2283 25.8343 41.2967 26.1557 41.2967 26.4807C41.2967 26.8057 41.2283 27.1271 41.0961 27.4233C40.8323 28.0256 40.3551 28.506 39.7585 28.7699C39.4242 28.9045 39.1564 28.9718 38.8221 28.9718H38.8224ZM38.1535 24.8645C37.2171 25.2685 36.8162 26.2787 37.1506 27.2213C37.3511 27.6926 37.6855 28.0293 38.0866 28.2312C38.5547 28.4332 39.0227 28.4332 39.4239 28.2312C39.8923 28.0293 40.2266 27.6926 40.4272 27.2886C40.6277 26.8173 40.6277 26.346 40.4272 25.9421C40.0928 24.9318 39.0899 24.4608 38.1535 24.8648V24.8645ZM57.7478 27.2213C57.4135 27.2213 57.0792 27.154 56.8114 27.0193C56.215 26.7554 55.7379 26.275 55.4742 25.6728C55.3419 25.3765 55.2735 25.0551 55.2735 24.73C55.2735 24.4049 55.3419 24.0835 55.4742 23.7872C55.7379 23.185 56.215 22.7046 56.8114 22.4407C58.0821 21.902 59.4863 22.5753 60.0215 23.7872C60.1537 24.0835 60.2221 24.4048 60.2221 24.7298C60.2221 25.0549 60.1537 25.3762 60.0215 25.6724C59.7577 26.2747 59.2804 26.7551 58.6839 27.019C58.3496 27.1537 58.0153 27.2213 57.7478 27.2213ZM57.7478 22.9793C57.5469 22.9793 57.2795 23.0466 57.0792 23.1139C56.6108 23.3159 56.2765 23.6526 56.0759 24.0565C55.8754 24.5278 55.8754 24.9991 56.0759 25.4031C56.4771 26.3457 57.4801 26.7497 58.4161 26.4134C58.8845 26.2114 59.2188 25.8747 59.4194 25.4708C59.6203 24.9991 59.6203 24.5282 59.4194 24.1242C59.0851 23.3833 58.4165 22.9793 57.7478 22.9793ZM48.7863 26.1441C47.7834 26.1441 46.9141 25.5378 46.5126 24.5952C45.9777 23.3159 46.6467 21.902 47.8502 21.3634C49.1209 20.8248 50.5254 21.4981 51.0603 22.71C51.5952 23.9892 50.9265 25.4031 49.723 25.9417C49.4552 26.0764 49.1209 26.1441 48.7866 26.1441H48.7863ZM48.1177 22.0367C47.1816 22.4407 46.7804 23.4506 47.1147 24.3932C47.5159 25.3358 48.5192 25.7398 49.4552 25.4031C50.3916 24.9991 50.7925 23.9892 50.4582 23.0466C50.1239 22.104 49.0541 21.6327 48.118 22.0367H48.1177ZM57.4353 35.2751L57.965 34.8642L72.7397 54.174L72.2093 54.5846L57.4353 35.2751ZM28.574 46.8556L29.2419 46.8145L30.4857 66.9086L29.8177 66.9503L28.5736 46.8556H28.574ZM45.3717 44.1382L45.9378 43.7785L51.7993 53.1116L51.2342 53.4718L45.3717 44.1378V44.1382Z" fill="#545863"/>
<path d="M64.3685 21.498C63.2315 18.7373 59.5537 17.256 54.0032 17.3234C52.5319 17.3234 51.0606 17.458 49.4555 17.7273C48.4526 15.5728 46.5129 13.9566 43.9718 13.014L45.7106 8.90664C45.8443 8.90664 45.978 8.97397 46.1117 8.97397C46.3792 8.97397 46.5798 8.90664 46.8476 8.83932C47.3156 8.63733 47.7168 8.30069 47.9174 7.82939C48.0166 7.59539 48.0678 7.34342 48.0678 7.08878C48.0678 6.83414 48.0166 6.58216 47.9174 6.34816C47.7168 5.87654 47.3825 5.47256 46.9144 5.27091C46.6818 5.17092 46.4316 5.11938 46.1788 5.11938C45.926 5.11938 45.6758 5.17092 45.4431 5.27091C44.9751 5.47256 44.5736 5.80954 44.373 6.28051C44.2737 6.5145 44.2225 6.76648 44.2225 7.02112C44.2225 7.27576 44.2737 7.52774 44.373 7.76173C44.5067 8.0987 44.7745 8.43502 45.1088 8.63733L43.3032 12.7447C43.1695 12.6774 43.0357 12.6774 42.8348 12.61C39.6248 11.8021 35.8801 12.0714 32.4026 13.4853C28.9251 14.9665 25.9825 17.3234 24.2438 20.1511C24.2438 20.1511 24.2438 20.2185 24.1769 20.2185L19.897 18.4006C19.9639 17.9966 19.9639 17.5927 19.8302 17.256C19.6296 16.7847 19.2953 16.3804 18.8272 16.1788C17.8908 15.7748 16.7538 16.2458 16.3527 17.1887C15.9515 18.1313 16.4195 19.2759 17.3556 19.6798C17.6234 19.8145 17.824 19.8145 18.0914 19.8145C18.3589 19.8145 18.5594 19.7472 18.8272 19.6798C19.1615 19.5452 19.4959 19.2759 19.6964 18.9392L23.9094 20.7571C22.5722 23.3156 22.2379 25.9417 23.0402 28.2985C16.7538 33.0119 13.4772 37.9272 14.8814 41.5632C16.0183 44.391 19.6964 45.7376 24.8458 45.7376C29.9952 45.7376 36.6825 44.3237 43.6375 41.4959C57.4807 35.9073 66.5753 27.0866 64.3685 21.4977V21.498ZM44.9085 7.49275C44.7748 7.1561 44.7748 6.81946 44.9085 6.55015C45.0423 6.21318 45.3097 6.01152 45.5772 5.87686C45.7109 5.80921 45.9115 5.80921 46.0452 5.80921C46.1789 5.80921 46.3795 5.80921 46.5132 5.87654C47.1153 6.14585 47.4496 6.88646 47.1819 7.49242C46.9147 8.0987 46.1789 8.43502 45.5772 8.1657C45.3097 8.03105 45.0423 7.76173 44.9085 7.49242V7.49275ZM19.2281 18.4676C19.0944 18.8043 18.8269 19.0062 18.5594 19.1409C18.2251 19.2756 17.8905 19.2756 17.623 19.1409C17.2887 19.0062 17.0881 18.7369 16.9544 18.4676C16.8204 18.131 16.8204 17.7943 16.9544 17.525C17.0881 17.1884 17.3556 16.9864 17.623 16.8517C17.7568 16.7844 17.9574 16.7844 18.0911 16.7844C18.2248 16.7844 18.4254 16.7844 18.5591 16.8517C18.8934 16.9864 19.0944 17.2557 19.2278 17.525C19.3618 17.7943 19.3618 18.131 19.2278 18.4676H19.2281ZM25.3804 20.8914C26.9854 18.2656 29.6603 16.1108 32.9372 14.7642C36.1473 13.4176 39.5579 13.1483 42.5674 13.8889C45.1085 14.5622 47.0478 15.9761 48.1176 17.8617C44.1721 18.5349 39.9591 19.7469 35.6792 21.4974C31.3322 23.2479 27.4535 25.3354 24.2434 27.5576C23.5748 25.4701 24.0428 23.1136 25.3804 20.8914ZM43.1691 40.2837C30.463 45.4683 18.0911 45.8046 16.1517 41.0916C14.2124 36.311 23.3742 27.9616 36.0804 22.777C42.4333 20.2185 48.7866 18.7369 54.0028 18.6696H54.404C59.0851 18.6696 62.2283 19.8815 63.0975 22.036C65.0368 26.7497 55.8753 35.0987 43.1691 40.2837Z" fill="#545863"/>
<path opacity="0.577" d="M5.09339 7.08185L1.50195 5.46071L5.09339 3.8399L6.69517 0.205811L8.29728 3.8399L11.8884 5.46071L8.29728 7.08185L6.69517 10.7156L5.09339 7.08185Z" fill="#545863"/>
<path opacity="0.1" d="M71.0171 5.38634C71.0171 6.22255 71.3454 7.02451 71.9297 7.61581C72.5141 8.2071 73.3066 8.53928 74.133 8.53928C74.9594 8.53928 75.752 8.2071 76.3363 7.61581C76.9207 7.02451 77.249 6.22255 77.249 5.38634C77.249 4.55013 76.9207 3.74816 76.3363 3.15687C75.752 2.56558 74.9594 2.2334 74.133 2.2334C73.3066 2.2334 72.5141 2.56558 71.9297 3.15687C71.3454 3.74816 71.0171 4.55013 71.0171 5.38634Z" fill="#717580"/>
<path opacity="0.2" d="M12.9006 62.1766L13.6877 62.9728C13.7566 63.0425 13.8113 63.1253 13.8485 63.2163C13.8858 63.3074 13.905 63.4051 13.905 63.5037C13.905 63.6023 13.8858 63.6999 13.8485 63.791C13.8113 63.8821 13.7566 63.9649 13.6877 64.0346C13.6188 64.1043 13.537 64.1596 13.447 64.1973C13.357 64.2351 13.2605 64.2545 13.163 64.2545C13.0656 64.2545 12.9691 64.2351 12.8791 64.1973C12.789 64.1596 12.7072 64.1043 12.6383 64.0346L11.8516 63.2381L11.0645 64.0346C10.9246 64.1717 10.737 64.2477 10.5422 64.2462C10.3475 64.2446 10.1611 64.1656 10.0234 64.0262C9.88568 63.8868 9.80766 63.6982 9.80617 63.5011C9.80469 63.304 9.87985 63.1143 10.0154 62.9728L10.8022 62.1766L10.0154 61.3802C9.88169 61.2383 9.80808 61.0492 9.81036 60.8531C9.81263 60.6571 9.89061 60.4697 10.0276 60.331C10.1646 60.1924 10.3498 60.1135 10.5436 60.1112C10.7373 60.1089 10.9243 60.1834 11.0645 60.3187L11.8516 61.1148L12.6383 60.3187C12.7782 60.1815 12.9657 60.1055 13.1605 60.107C13.3553 60.1085 13.5417 60.1874 13.6794 60.3268C13.8172 60.4661 13.8953 60.6547 13.8968 60.8518C13.8984 61.0489 13.8232 61.2387 13.6877 61.3802L12.9006 62.1766Z" fill="#42454C"/>
<path opacity="0.47" d="M71.8549 33.0339L73.6507 32.2236L71.8549 31.4131L71.0541 29.5962L70.2531 31.4131L68.4575 32.2236L70.2531 33.0339L71.0541 34.8511L71.8549 33.0339Z" fill="#717580"/>
<path d="M83.4388 54.2142L86.0257 53.1534L83.4388 52.0919L82.3905 49.4746L81.3414 52.0919L78.7549 53.153L81.3414 54.2145L82.3901 56.8315L83.4388 54.2142Z" fill="#2A2C33"/>
<path opacity="0.2" d="M2.92943 56.3013L4.366 55.653L2.92943 55.0047L2.28871 53.551L1.648 55.0047L0.211426 55.653L1.648 56.3013L2.28871 57.7549L2.92943 56.3013Z" fill="#42454C"/>
</g>
<defs>
<clipPath id="clip0_518_13456">
<rect width="86" height="67" fill="white"/>
</clipPath>
</defs>
</svg>
